# xmcd
#
# Track frame offsets:
#	150
#	18210
#	35692
#	64099
#	93176
#	110508
#	129877
#	149580
#
# Disc length: 2425 seconds
#
# Revision: 0
# Processed by: cddbd v1.5.2PL0 Copyright (c) Steve Scherf et al.
# Submitted via: EasyCDDAExtractor 16.0.9.1
#
DISCID=66097708
DTITLE=Ray Charles - N-098 Ray Charles At Newport 1.958
DYEAR=1900
DGENRE=
TTITLE0=Night Time Is the Right Time
TTITLE1=ln a Little Spanish Town
TTITLE2=I Got a Woman
TTITLE3=Blues Waltz
TTITLE4=Hot Rod
TTITLE5=Talkin' 'Bout You
TTITLE6=Sherry
TTITLE7=A Fool for You
EXTD=
EXTT0=
EXTT1=
EXTT2=
EXTT3=
EXTT4=
EXTT5=
EXTT6=
EXTT7=
PLAYORDER=
